<svg width="399" height="399" xmlns="http://www.w3.org/2000/svg" xmlns:xlink="http://www.w3.org/1999/xlink" xml:space="preserve" overflow="hidden"><defs><clipPath id="clip0"><rect x="1632" y="418" width="399" height="399"/></clipPath><clipPath id="clip1"><rect x="1699" y="506" width="237" height="205"/></clipPath><clipPath id="clip2"><rect x="1699" y="506" width="237" height="205"/></clipPath><clipPath id="clip3"><rect x="1699" y="506" width="237" height="205"/></clipPath></defs><g clip-path="url(#clip0)" transform="translate(-1632 -418)"><rect x="1632" y="418" width="399" height="399" fill="#DD413E"/><g clip-path="url(#clip1)"><g clip-path="url(#clip2)"><g clip-path="url(#clip3)"><path d="M-14559.2 3942.49C-14544.8 3958.84-14525.4 3970.77-14504.3 3976.28-14490.6 3979.86-14476.1 3980.74-14462.2 3977.82-14448.3 3974.9-14435.2 3968.01-14425.7 3957.56-14415.3 3946.22-14409.6 3931.09-14408.4 3915.8-14407.2 3900.49-14410.3 3885.04-14416.1 3870.83-14426.5 3845.47-14445.3 3823.67-14468.8 3809.76-14449.6 3811.36-14430.8 3818.53-14415.4 3830.21-14400 3841.85-14388 3857.96-14381.2 3876.06-14374.4 3894.15-14372.9 3914.17-14376.9 3933.08-14380.8 3952.01-14390.3 3969.75-14403.7 3983.61-14423.4 4003.84-14451.6 4015.39-14479.8 4014.74-14508 4014.06-14535.7 4001.19-14554.3 3980.04L-14587.3 4012.97-14608.5 3991.76Z" fill="#FFE620" transform="matrix(1.00412 0 0 1 16368.7 -3303.76)"/><path d="M-14460.2 3851.04-14485 3875.83-14373.6 3987.28-14398.8 4012.7-14510.3 3901.14-14529.9 3920.71-14558.8 3891.78-14510 3842.99C-14504 3843.62-14497.8 3843.32-14491.8 3842.15-14486 3840.99-14480.3 3839-14475 3836.22Z" fill="#FFE620" transform="matrix(1.00412 0 0 1 16368.7 -3303.76)"/></g></g></g></g></svg>