<svg width="24" height="24" xmlns="http://www.w3.org/2000/svg" xmlns:xlink="http://www.w3.org/1999/xlink" xml:space="preserve" overflow="hidden"><g transform="translate(-1100 -348)"><path d="M1121.38 366.9 1118.25 363.775C1117.82 363.35 1117.25 363.2 1116.7 363.3L1115.6 362.2C1116.57 360.95 1117.15 359.35 1117.15 357.65 1117.15 353.525 1113.78 350.15 1109.65 350.15 1105.53 350.15 1102.15 353.525 1102.15 357.65 1102.15 361.775 1105.53 365.15 1109.65 365.15 1111.35 365.15 1112.93 364.575 1114.2 363.6L1115.3 364.7C1115.2 365.25 1115.35 365.825 1115.78 366.25L1118.9 369.375C1119.25 369.725 1119.7 369.9 1120.15 369.9 1120.6 369.9 1121.05 369.725 1121.4 369.375 1122.05 368.675 1122.05 367.575 1121.38 366.9ZM1109.62 363.625C1106.32 363.625 1103.62 360.925 1103.62 357.625 1103.62 354.325 1106.32 351.625 1109.62 351.625 1112.93 351.625 1115.62 354.325 1115.62 357.625 1115.62 360.925 1112.93 363.625 1109.62 363.625Z"/></g></svg>