<svg width="302" height="160" xmlns="http://www.w3.org/2000/svg" xmlns:xlink="http://www.w3.org/1999/xlink" xml:space="preserve" overflow="hidden"><defs><clipPath id="clip0"><rect x="383" y="510" width="111" height="97"/></clipPath><clipPath id="clip1"><rect x="383" y="510" width="111" height="97"/></clipPath><clipPath id="clip2"><rect x="383" y="510" width="111" height="97"/></clipPath></defs><g transform="translate(-291 -485)"><rect x="291" y="485" width="302" height="160" fill="#DD413E"/><g clip-path="url(#clip0)"><g clip-path="url(#clip1)"><g clip-path="url(#clip2)"><path d="M-6814.04 1845.17C-6807.28 1852.83-6798.2 1858.41-6788.31 1860.99-6781.91 1862.66-6775.11 1863.07-6768.63 1861.71-6762.15 1860.34-6755.99 1857.11-6751.53 1852.22-6746.68 1846.92-6744 1839.84-6743.44 1832.68-6742.88 1825.51-6744.36 1818.28-6747.07 1811.63-6751.9 1799.77-6760.71 1789.56-6771.74 1783.05-6762.73 1783.8-6753.95 1787.16-6746.74 1792.62-6739.52 1798.07-6733.91 1805.61-6730.73 1814.08-6727.56 1822.55-6726.84 1831.92-6728.69 1840.77-6730.54 1849.63-6734.96 1857.93-6741.26 1864.42-6750.45 1873.88-6763.68 1879.29-6776.87 1878.99-6790.06 1878.67-6803.02 1872.64-6811.75 1862.75L-6827.17 1878.16-6837.1 1868.23Z" fill="#F8C98D" transform="matrix(1 0 0 1.00058 7221.12 -1274.08)"/><path d="M-6767.7 1802.37-6779.31 1813.97-6727.16 1866.13-6738.94 1878.03-6791.15 1825.82-6800.31 1834.98-6813.85 1821.44-6791.01 1798.6C-6788.18 1798.9-6785.29 1798.76-6782.49 1798.21-6779.76 1797.67-6777.1 1796.74-6774.64 1795.44Z" fill="#F8C98D" transform="matrix(1 0 0 1.00058 7221.12 -1274.08)"/></g></g></g></g></svg>