<svg width="1972" height="2637" xmlns="http://www.w3.org/2000/svg" xmlns:xlink="http://www.w3.org/1999/xlink" xml:space="preserve" overflow="hidden"><defs><clipPath id="clip0"><rect x="2478" y="172" width="1972" height="2637"/></clipPath></defs><g clip-path="url(#clip0)" transform="translate(-2478 -172)"><path d="M3819.87 2045.42C3818.1 2043.72 3816.35 2042.03 3814.59 2040.34 3807.59 2038.01 3810.66 2027.6 3802.96 2025.84 3802.96 2025.84 3802.96 2025.84 3802.96 2025.84 3802.77 2025.23 3802.58 2024.63 3802.34 2024.04 3803.81 2020.84 3803 2016.93 3804.05 2013.59 3805.33 2003.15 3796.42 2000.26 3790.45 1995.19 3789.1 1991.74 3786.83 1989.73 3783.95 1988.66 3783.96 1987.6 3784.04 1986.5 3784.21 1985.37 3782.34 1978.85 3784.29 1971.17 3778.12 1965.99 3777.6 1964.69 3777.09 1963.37 3776.59 1962.07 3777.25 1959.31 3777.33 1956.28 3779.25 1954.12 3778.59 1935.25 3783.32 1915.84 3773.57 1897.89 3775.66 1894.84 3775.71 1892.28 3773.76 1890.19 3774.34 1888.82 3774.94 1887.47 3775.62 1886.1 3775.24 1877.49 3779.06 1868.28 3771.93 1860.63 3771 1860.27 3770.17 1859.87 3769.37 1859.45 3770.72 1858.02 3771.13 1856.18 3769.84 1853.6 3768.37 1847.85 3766.89 1842.09 3765.42 1836.34 3763.77 1833.12 3761.41 1831.07 3758.51 1829.89 3758.29 1828.38 3758.01 1826.9 3757.57 1825.49 3756.64 1821.39 3756.01 1817.21 3753.66 1813.59 3757.6 1807.61 3757.68 1801.71 3751.98 1795.91 3748.81 1791.27 3745.65 1786.64 3742.49 1781.99 3730.36 1774.07 3739.15 1761.69 3736.08 1751.84 3734.67 1747.56 3733.47 1743.16 3730.7 1739.74 3730.87 1737.85 3731.03 1735.96 3731.15 1734.08 3732.91 1724.86 3723.61 1720.86 3721.4 1713.5 3718.54 1709.96 3715.67 1706.41 3712.81 1702.86 3710.75 1694.21 3708.69 1685.56 3706.63 1676.92 3705.23 1675.37 3704.45 1673.52 3703.96 1671.54 3704.85 1673.33 3705.74 1675.12 3706.63 1676.92 3705.24 1659.86 3716.98 1637.07 3687.2 1632.45 3673.65 1625.64 3673.67 1611.26 3668.7 1599.58 3660.4 1580.07 3660.55 1556.55 3641.66 1542.04 3643.67 1530.87 3635.25 1527.04 3627.92 1522.44 3622.4 1513.39 3621.57 1500.18 3607.15 1499.06 3594.02 1491.72 3587.26 1473.88 3568.6 1475.64 3567.24 1471.79 3566.69 1467.34 3564.39 1464.16 3521.76 1405.23 3460.31 1370.93 3399.76 1334.08 3350.71 1304.23 3301.86 1272.2 3264.97 1226.25 3255.14 1206.48 3241.98 1187.36 3252.98 1163.61 3253.37 1156.99 3253.41 1150.39 3251.01 1144.04 3247.68 1132.26 3243.18 1117.98 3232.23 1114.72 3187.82 1101.47 3164.39 1057.96 3122.79 1041.3 3119.04 1039.79 3115.91 1036.74 3112.5 1034.41 3131.41 1008.15 3099.58 995.132 3096.87 974.516 3095.94 974.951 3095 975.405 3094.08 975.84 3094.73 975.098 3095.59 974.589 3096.87 974.509 3099.03 971.559 3101.18 968.616 3103.33 965.667 3104.7 957.974 3111.31 950.516 3105.39 942.489 3105.73 942.409 3106 942.422 3106.35 942.322 3116.88 934.916 3117.43 923.646 3117.94 912.348 3118.87 906.334 3122.32 900.468 3118.93 894.214 3118.32 893.752 3117.71 893.237 3117.11 892.696 3117.18 891.023 3117.26 889.351 3117.33 887.679 3113.58 883.933 3109.82 880.193 3106.06 876.441 3105.99 875.953 3105.62 875.538 3104.85 875.237 3104.85 875.237 3104.84 875.23 3104.84 875.23 3104.84 875.23 3104.84 875.23 3104.84 875.23L3104.37 875.136C3102.05 872.427 3100.58 869.183 3098.69 866.207 3102.82 860.481 3102.01 851.905 3108.69 847.658 3111.2 845.069 3113.7 842.48 3116.21 839.892 3117.62 825.263 3128.61 813.811 3130.49 799.343 3130.7 799.216 3130.89 799.082 3131.1 798.954 3134.05 798.908 3136.56 797.818 3138.67 795.764 3171.67 796.112 3187.4 771.603 3204.92 749.677 3227.18 742.86 3212.74 729.435 3210.57 718.224 3210.88 701.943 3208.83 685.682 3210.13 669.387 3218.9 661.16 3207.82 652.117 3211.18 643.668 3211.18 643.668 3211.18 643.668 3211.18 643.668 3220.65 632.43 3224.46 609.199 3248.01 627.661 3250.27 629.44 3261.67 619.567 3268.83 615.106 3272.29 613.019 3274.16 609.387 3276.95 606.651 3283.52 607.373 3290.64 604.931 3296.61 608.958 3317 613.634 3324.42 603.039 3325.18 584.63L3325.18 584.63C3325.18 584.63 3325.18 584.63 3325.18 584.63 3332.92 580.008 3319.41 570.115 3329.76 566.142 3329.02 561.091 3332.09 555.626 3330.95 550.63 3332.04 550.556 3333.1 550.396 3334.16 550.161 3334.32 550.349 3334.5 550.516 3334.67 550.703 3338.7 554.189 3343.39 553.566 3348.1 552.884 3350.99 551.526 3353.63 549.807 3356.04 547.707 3359.5 545.445 3363.16 544.388 3366.94 543.927 3372.26 543.914 3377.59 543.894 3382.91 543.88 3383.89 543.894 3384.87 543.894 3385.84 543.874 3391.56 543.853 3397.27 543.84 3402.98 543.82 3405.24 541.72 3407.49 539.613 3409.74 537.506 3413.92 537.164 3418.1 536.824 3422.28 536.475 3431.19 532.021 3441.94 531.773 3449.62 524.488 3466.17 515.03 3466.96 505.906 3449.05 497.17 3446.99 494.883 3444.93 492.602 3442.86 490.314L3442.86 490.314C3416.51 479.391 3390.13 468.909 3361.68 483.678L3361.68 483.678C3351.22 481.324 3340.77 478.97 3330.31 476.615 3327.83 472.441 3325.36 468.267 3322.89 464.087 3316.82 455.999 3305.39 453.678 3300.3 445.324 3282.49 416.126 3255 409.851 3224.53 409.878 3223.5 407.337 3221.63 405.33 3217.88 404.527 3209.63 395.27 3212.15 381.342 3203.86 372.105 3203.15 370.413 3201.94 369.857 3200.2 370.44 3200.2 370.44 3200.2 370.44 3200.2 370.44 3199.36 364.941 3198.53 359.436 3197.7 353.938 3196.71 352.587 3195.7 351.235 3194.71 349.884 3195.11 349.068 3195.49 348.238 3195.93 347.443 3202 337.837 3204.85 326.719 3210.07 316.713 3215.08 305.743 3225.67 300.445 3234.1 292.974 3238.33 288.004 3240.66 282.418 3239.58 275.749 3230.72 253.32 3217.14 242.304 3190.19 242.999 3146.24 244.137 3101.58 242.718 3061.23 220.303 3040.32 217.132 3034.33 196.156 3019.66 185.587 3003.7 172.757 2986.61 169.246 2967.89 179.419 2942.45 187.446 2910.57 179.962 2894.4 210.189 2889.93 220.892 2891.52 233.013 2886.59 243.628 2872.4 270.324 2850.27 272.465 2824.68 263.461 2797.99 254.069 2774.8 257.294 2757.55 281.923 2747.36 296.485 2735.44 302.86 2718.42 292.231 2705.15 283.943 2693.32 285.488 2684.55 299.555 2684.2 301.047 2683.57 302.385 2682.74 303.623 2679.91 302.458 2677.24 300.9 2674.65 299.255 2639.91 277.114 2639.67 276.859 2612.77 311.362 2606.14 319.87 2601.2 320.566 2595.42 311.971 2591.13 305.595 2587.48 298.86 2579.56 296.285 2576.74 295.482 2574.02 295.515 2571.34 295.93 2567.08 293.555 2561.75 294.378 2557.12 293.074 2554.35 295.328 2551.58 297.589 2548.8 299.849L2548.8 299.849C2524.97 303.094 2515.15 326.92 2497.91 336.192 2471.61 350.339 2477.44 360.854 2490.96 377.182 2501.07 381.991 2511.16 386.801 2521.26 391.617 2545.89 393.223 2554.4 411.945 2562.8 430.782 2589.51 450.614 2611.94 472.482 2600.52 510.402 2586.43 524.007 2598.71 531.432 2607.55 539.232 2634.78 563.265 2660.82 588.189 2674.2 623.213 2677.92 625.848 2681.63 628.477 2685.35 631.105 2685.92 631.133 2686.48 631.126 2687.04 631.146 2709.19 637.387 2732.71 627.614 2754.62 636.765L2756.5 638.21C2756.5 638.21 2758.69 637.314 2758.69 637.314 2783.75 656.417 2805.22 645.728 2826 629.213 2843.63 624.972 2861.22 624.103 2878.74 629.782 2887.7 640.578 2894.24 653.795 2909.54 657.916 2922.42 661.387 2937.43 661.327 2944.26 676.384 2944.26 676.384 2944.26 676.384 2944.26 676.384 2945.03 704.083 2938.57 734.847 2982.42 737.616 2996.82 738.519 2994.01 753.182 2983.27 758.111 2964.44 766.74 2961.12 782.433 2957.13 799.764 2953.76 814.359 2948.93 829.029 2938.46 840.734 2928.81 850.888 2913.61 846.44 2903.07 854.226 2903.05 854.24 2903.03 854.24 2903.01 854.254 2884.37 853.357 2868.88 862.674 2852.68 869.739 2824.68 864.815 2825.69 880.829 2834.46 897.852 2840.3 909.177 2851.14 917.927 2859.74 927.826 2861.25 932.094 2862.74 936.355 2864.25 940.622 2837.77 966.322 2838.07 973.68 2866.12 986.911L2866.12 986.911C2868.34 986.924 2870.55 986.937 2872.77 986.951 2881.81 998.162 2890.86 1009.37 2899.9 1020.58 2916.57 1046.36 2944.23 1026.29 2964.71 1036.15L2964.71 1036.15C2964.71 1036.15 2964.71 1036.15 2964.71 1036.15 2969.77 1043.29 2975.55 1049.08 2985.43 1047.15 2989.47 1049.43 2993.51 1051.71 2997.56 1054 3006.89 1064.93 3019.76 1060.66 3031.36 1061.88 3031.36 1061.88 3031.36 1061.88 3031.36 1061.87 3031.36 1061.87 3031.36 1061.88 3031.36 1061.88 3056.53 1091.41 3076.86 1124.46 3117.18 1139.66 3135.18 1146.45 3148.07 1169.52 3151.71 1192.33 3153.53 1203.73 3221.27 1306.13 3231.91 1312.66 3232.76 1313.18 3234.05 1313 3235.13 1313.14 3248.43 1319.03 3263.63 1310.69 3276.66 1318.67 3299.13 1334.83 3288.76 1368.8 3310.33 1383.95 3332.4 1399.45 3364.58 1403.92 3363.85 1440.72 3363.82 1442.14 3366.89 1444.86 3368.54 1444.88 3398.7 1445.07 3416.36 1470.1 3441 1481.14 3448.69 1481.22 3455.99 1475.47 3463.98 1479.61 3470.23 1483.86 3470.5 1490.1 3470.8 1496.32 3462.66 1495.71 3460.67 1500.24 3455.6 1518.22 3455.3 1522.38 3455.01 1526.55 3454.72 1530.72 3451.69 1546.39 3445.53 1562.66 3463.08 1574.39 3465.01 1574.82 3466.97 1575.09 3468.95 1575.21L3468.95 1575.21C3475.75 1580.2 3482.56 1585.19 3489.36 1590.18 3487.98 1598.67 3486.18 1607.23 3493.07 1614.46 3493.07 1614.46 3493.07 1614.46 3493.07 1614.46 3493.07 1614.46 3493.07 1614.46 3493.07 1614.46 3485.26 1624.23 3472.62 1629.67 3468.09 1642.39 3441.89 1656.89 3440.4 1670.17 3460.5 1709.84 3463.23 1722.96 3465.96 1736.08 3468.68 1749.2 3467.36 1758.28 3469.06 1768.21 3461.25 1775.45 3436.94 1782.09 3430.52 1795.39 3443.98 1817.99 3462.88 1849.72 3498.25 1869.85 3507.24 1908.45 3507.65 1925.99 3508.05 1943.52 3508.46 1961.06 3506.05 1970.86 3509.22 1980.55 3509.26 1990.04 3509.41 2024.35 3512.87 2060.34 3503.89 2092.57 3492.73 2132.56 3462.11 2159.64 3420.79 2174.07 3393.14 2183.72 3365.61 2196.68 3352.08 2226.03 3347.15 2236.74 3339.58 2238.88 3328.64 2239.47 3253.32 2243.51 3253.33 2243.75 3257.51 2316.89 3259.79 2330.21 3270.86 2333.71 3281.24 2336.47 3306.85 2343.26 3315.45 2361.13 3315.5 2385.44 3315.51 2392.79 3319.8 2402.02 3311.2 2406.24 3302.87 2410.32 3294.07 2407.46 3287.38 2400.53 3276.37 2389.15 3263.04 2382.26 3247.5 2379.53 3245.76 2380.42 3244.4 2380.02 3243.4 2378.34 3241.22 2375.74 3238.99 2375.58 3236.72 2378.24 3208.68 2385.59 3181.95 2401.96 3151.21 2390.61 3148.84 2388.71 3146.48 2386.81 3144.11 2384.91 3135.4 2385.84 3126.68 2386.77 3117.96 2387.7 3100.97 2388.2 3109.22 2404.02 3103.6 2411.41 3096.46 2416.24 3094.5 2424.27 3091.17 2431.46 3082.27 2439.64 3071.14 2438.79 3060.3 2439.07 3056.29 2440.02 3052.16 2440.62 3048.85 2443.43 3044.69 2452.01 3037.71 2458.49 3032.13 2466 3030.22 2471.86 3021.67 2477.5 3031.58 2483.73 3041.68 2495.32 3026.78 2512.98 3041.25 2523.5 3046.38 2534.17 3057.84 2526.48 3064.86 2531.65 3079.85 2534.16 3094.7 2537.96 3110.12 2536.03 3124.22 2533.08 3138.28 2529.46 3153.07 2533.73 3138.93 2547.74 3117.12 2555.08 3112.19 2578.06 3104.02 2584.73 3093.71 2590.11 3096.85 2603.61 3097.26 2610.27 3097.66 2616.92 3098.07 2623.57 3098.05 2638.99 3098.02 2654.42 3098.01 2669.83 3096.23 2673.53 3094.45 2677.22 3092.67 2680.91 3100.63 2686.38 3098.65 2694.62 3097.34 2701.73 3092.9 2725.7 3094.36 2746.94 3120.65 2757.61 3107.7 2777.26 3076.82 2770.66 3070.94 2796.62 3077.22 2808.69 3087.25 2808.31 3099.02 2806.65 3120.06 2803.7 3138.8 2795.35 3157.03 2785.17 3175.28 2779.23 3192.09 2771.11 3203.72 2754.93 3205.34 2752.32 3206.48 2749.55 3207.12 2746.53 3209.08 2734.27 3209.03 2721.63 3214.53 2710.06 3217.94 2705.7 3222.86 2704.18 3227.9 2702.91 3236.27 2701.04 3244.18 2697.96 3251.49 2693.4 3264.79 2684.22 3274.16 2670.47 3287.84 2661.71 3300.66 2654.05 3316.51 2649.59 3319.32 2631.47 3321.83 2621.52 3309.31 2610.48 3321.42 2601.04 3328.62 2604.57 3335.12 2610.22 3343.99 2609.73 3353.7 2609.39 3360.9 2604.52 3366.62 2597.01 3373.69 2585.94 3382.77 2576.8 3393.24 2569 3395.39 2566.98 3396.98 2564.6 3397.94 2561.8 3397.89 2550.73 3392.45 2539.46 3399.11 2528.68 3394.03 2511.58 3383.29 2494.4 3399.63 2477.52 3400.66 2475.7 3401.51 2473.78 3402.32 2471.85 3402.9 2475.52 3403.41 2479.22 3405.23 2482.4 3406.26 2483.85 3407.55 2484.91 3408.99 2485.76 3418.6 2495.3 3430.31 2492.61 3441.85 2490.95L3441.85 2490.95C3448.29 2492.78 3454.73 2494.61 3461.18 2496.44 3462.8 2495.08 3464.42 2493.7 3466.04 2492.33 3467.14 2492.98 3468.22 2493.64 3469.3 2494.33 3473.57 2495.64 3477.79 2495.52 3481.99 2494 3483.05 2493.43 3484.1 2492.87 3485.16 2492.31 3496.24 2498.11 3505.39 2490.98 3514.74 2485.17 3519.07 2482.47 3523.4 2479.78 3527.73 2477.08 3531.34 2476.77 3535.02 2476.64 3538.83 2476.99 3550.52 2477.05 3560.22 2474.17 3562.94 2460.74 3562.87 2459.84 3562.21 2458.97 3561.3 2458.1 3561.4 2458.16 3561.52 2458.2 3561.62 2458.25 3570.54 2453.75 3580.57 2450.71 3586.04 2441.66 3588.15 2441.66 3590.23 2441.46 3592.28 2440.79 3596.89 2437.99 3597.76 2432.59 3600.62 2428.61 3607.92 2429.13 3615.18 2427.78 3622.41 2425.06 3633.56 2421.09 3626.48 2412.08 3627.84 2405.4 3636.21 2393.27 3656.33 2395.78 3660.85 2378.85 3684.74 2368.48 3708.1 2357.39 3722.14 2333.64 3722.14 2333.64 3722.14 2333.64 3722.14 2333.64 3722.14 2333.64 3722.14 2333.64 3722.15 2333.64 3725.43 2331.13 3728.7 2328.62 3731.99 2326.11 3732.42 2319.31 3732.85 2312.51 3733.27 2305.71 3733.27 2305.71 3733.27 2305.71 3733.27 2305.71 3733.27 2305.71 3733.65 2305.71 3733.65 2305.71 3733.64 2305.37 3733.64 2305.03 3733.63 2304.68 3738.38 2306.86 3742.34 2304.8 3742.12 2299.11 3741.64 2285.92 3750.51 2282.84 3759.62 2279.09 3786.49 2271.75 3779.12 2250.52 3778.67 2232.09 3802.65 2207.83 3767.08 2197.98 3766.03 2179.77 3768.56 2175.49 3771.11 2171.21 3773.65 2166.92 3775.65 2167.04 3777.59 2166.75 3779.47 2166.03 3796.18 2159.1 3789.93 2139.24 3800.4 2128.81 3815.48 2118.43 3809.07 2109.35 3798.69 2100.51 3794.79 2097.2 3797.3 2088.53 3791.73 2086.59 3792.61 2079.09 3792.57 2071.4 3796.15 2064.41 3796.42 2064.2 3796.59 2063.96 3796.84 2063.74 3799.99 2065.02 3803.92 2064.75 3806.45 2067.29 3815.08 2068.83 3808.66 2088.65 3824.14 2081.88 3831.09 2068.75 3820.55 2057.66 3819.87 2045.42ZM2622.39 340.165C2622 339.683 2621.52 339.235 2621.03 338.786 2622.08 338.412 2623.07 338.065 2624.16 337.663 2623.6 338.519 2622.99 339.335 2622.39 340.165ZM2827.63 610.403C2827.83 610.303 2828.02 610.203 2828.22 610.102 2828.27 610.176 2828.32 610.256 2828.36 610.33 2828.12 610.356 2827.88 610.37 2827.63 610.403ZM3634 2358.42C3634.39 2359.31 3635.12 2360.3 3636.06 2361.33 3634.34 2360.46 3633.19 2359.53 3634 2358.42ZM3635.39 1552.08C3635.72 1551.58 3635.84 1551.08 3636.01 1550.59 3636.11 1550.66 3636.22 1550.76 3636.31 1550.82 3636.05 1551.27 3635.75 1551.7 3635.39 1552.08Z" stroke="#DD413E" stroke-width="3.4375" stroke-miterlimit="8" stroke-opacity="0" fill="#DD413E" fill-rule="evenodd" fill-opacity="0.141176"/><path d="M2982.24 2518.63C2977.1 2499.97 2969.65 2482.75 2952.59 2471.5 2945.49 2474.76 2942.76 2485.2 2932.64 2483.48 2930.59 2485.54 2928.54 2487.6 2926.5 2489.66 2932.92 2501.8 2938.67 2514.11 2935.73 2528.42 2935.12 2541.43 2940.24 2550.79 2953.09 2555.16 2962.26 2556.54 2970.09 2553.66 2976.99 2547.78 2985.06 2539.18 2981.73 2528.56 2982.24 2518.63Z" stroke="#DD413E" stroke-width="3.4375" stroke-miterlimit="8" stroke-opacity="0" fill="#DD413E" fill-rule="evenodd" fill-opacity="0.141176"/><path d="M2974.23 2510.63C2969.09 2491.97 2961.65 2474.75 2944.58 2463.5 2937.49 2466.76 2934.76 2477.2 2924.63 2475.48 2922.59 2477.54 2920.54 2479.6 2918.5 2481.66 2924.92 2493.8 2930.67 2506.11 2927.73 2520.42 2927.13 2533.43 2932.24 2542.79 2945.09 2547.16 2954.25 2548.54 2962.09 2545.66 2968.99 2539.78 2977.07 2531.18 2973.73 2520.56 2974.23 2510.63Z" stroke="#DD413E" stroke-width="3.4375" stroke-miterlimit="8" stroke-opacity="0" fill="#DD413E" fill-rule="evenodd" fill-opacity="0.141176"/><path d="M4173.82 1995.86C4170.43 1983.64 4165.51 1972.36 4154.23 1965 4149.55 1967.14 4147.74 1973.97 4141.05 1972.85 4139.7 1974.2 4138.35 1975.54 4137 1976.89 4141.24 1984.84 4145.04 1992.9 4143.1 2002.27 4142.7 2010.78 4146.08 2016.92 4154.57 2019.77 4160.62 2020.68 4165.8 2018.8 4170.36 2014.95 4175.7 2009.31 4173.49 2002.36 4173.82 1995.86Z" fill="#DD413E" fill-rule="evenodd" fill-opacity="0.411765"/><path d="M3940.83 1985.86C3937.52 1973.64 3932.74 1962.36 3921.77 1955 3917.21 1957.14 3915.45 1963.97 3908.94 1962.85 3907.63 1964.2 3906.31 1965.54 3905 1966.89 3909.13 1974.84 3912.82 1982.9 3910.93 1992.27 3910.55 2000.78 3913.83 2006.92 3922.09 2009.77 3927.99 2010.68 3933.02 2008.8 3937.46 2004.95 3942.65 1999.31 3940.5 1992.36 3940.83 1985.86Z" fill="#DD413E" fill-rule="evenodd" fill-opacity="0.411765"/><path d="M4047.83 2092.86C4044.52 2080.64 4039.74 2069.36 4028.77 2062 4024.21 2064.14 4022.45 2070.97 4015.94 2069.85 4014.63 2071.2 4013.31 2072.54 4012 2073.89 4016.13 2081.84 4019.82 2089.9 4017.93 2099.27 4017.55 2107.78 4020.83 2113.92 4029.09 2116.77 4034.99 2117.68 4040.02 2115.8 4044.46 2111.95 4049.65 2106.31 4047.5 2099.36 4047.83 2092.86Z" fill="#DD413E" fill-rule="evenodd" fill-opacity="0.411765"/><path d="M4066.82 1878.86C4063.43 1866.64 4058.51 1855.36 4047.23 1848 4042.55 1850.14 4040.74 1856.97 4034.05 1855.85 4032.7 1857.2 4031.35 1858.54 4030 1859.89 4034.24 1867.84 4038.04 1875.9 4036.1 1885.27 4035.7 1893.78 4039.08 1899.92 4047.57 1902.77 4053.62 1903.68 4058.8 1901.8 4063.36 1897.95 4068.7 1892.31 4066.49 1885.36 4066.82 1878.86Z" fill="#DD413E" fill-rule="evenodd" fill-opacity="0.411765"/><path d="M4173.82 1823.42C4170.43 1810.98 4165.51 1799.5 4154.23 1792 4149.55 1794.18 4147.74 1801.14 4141.05 1799.99 4139.7 1801.36 4138.35 1802.73 4137 1804.11 4141.24 1812.2 4145.04 1820.4 4143.1 1829.95 4142.7 1838.62 4146.08 1844.86 4154.57 1847.77 4160.62 1848.7 4165.8 1846.77 4170.36 1842.85 4175.7 1837.12 4173.49 1830.04 4173.82 1823.42Z" fill="#DD413E" fill-rule="evenodd" fill-opacity="0.411765"/><path d="M4290.82 1765.86C4287.43 1753.64 4282.51 1742.36 4271.23 1735 4266.55 1737.14 4264.74 1743.97 4258.05 1742.85 4256.7 1744.2 4255.35 1745.54 4254 1746.89 4258.24 1754.84 4262.04 1762.9 4260.1 1772.27 4259.7 1780.78 4263.08 1786.92 4271.57 1789.77 4277.62 1790.68 4282.8 1788.8 4287.36 1784.95 4292.7 1779.31 4290.49 1772.36 4290.82 1765.86Z" fill="#DD413E" fill-rule="evenodd" fill-opacity="0.411765"/><path d="M4234.85 1937.4C4231.91 1912.3 4227.65 1889.13 4217.91 1874 4213.85 1878.39 4212.29 1892.43 4206.51 1890.12 4205.34 1892.89 4204.17 1895.66 4203 1898.43 4206.67 1914.77 4209.95 1931.31 4208.27 1950.57 4207.93 1968.07 4210.85 1980.66 4218.19 1986.54 4223.43 1988.4 4227.91 1984.53 4231.85 1976.62 4236.47 1965.04 4234.56 1950.75 4234.85 1937.4Z" fill="#DD413E" fill-rule="evenodd" fill-opacity="0.411765"/><path d="M3825.76 1059.08C3821.17 1042.42 3814.52 1027.04 3799.29 1017 3792.95 1019.91 3790.52 1029.24 3781.48 1027.7 3779.65 1029.54 3777.82 1031.37 3776 1033.22 3781.73 1044.06 3786.87 1055.04 3784.24 1067.82 3783.7 1079.43 3788.27 1087.8 3799.74 1091.69 3807.92 1092.93 3814.92 1090.36 3821.08 1085.11 3828.29 1077.43 3825.31 1067.94 3825.76 1059.08Z" fill="#DD413E" fill-rule="evenodd" fill-opacity="0.309804"/><path d="M3757.76 1141.64C3753.17 1124.76 3746.52 1109.18 3731.29 1099 3724.95 1101.95 3722.52 1111.4 3713.48 1109.84 3711.65 1111.71 3709.82 1113.57 3708 1115.43 3713.73 1126.42 3718.87 1137.55 3716.24 1150.5 3715.7 1162.27 3720.27 1170.74 3731.74 1174.69 3739.92 1175.94 3746.92 1173.34 3753.08 1168.02 3760.29 1160.23 3757.31 1150.62 3757.76 1141.64Z" fill="#DD413E" fill-rule="evenodd" fill-opacity="0.309804"/><path d="M3889.76 1196.08C3885.07 1179.42 3878.29 1164.04 3862.76 1154 3856.29 1156.91 3853.81 1166.24 3844.59 1164.7 3842.73 1166.54 3840.86 1168.37 3839 1170.22 3844.84 1181.06 3850.08 1192.04 3847.4 1204.82 3846.86 1216.43 3851.51 1224.8 3863.21 1228.69 3871.56 1229.93 3878.7 1227.36 3884.98 1222.11 3892.34 1214.43 3889.3 1204.94 3889.76 1196.08Z" fill="#DD413E" fill-rule="evenodd" fill-opacity="0.309804"/><path d="M3980.76 1070.64C3976.17 1053.76 3969.52 1038.18 3954.29 1028 3947.96 1030.95 3945.52 1040.4 3936.48 1038.84 3934.65 1040.71 3932.82 1042.57 3931 1044.43 3936.73 1055.42 3941.87 1066.55 3939.24 1079.5 3938.7 1091.27 3943.27 1099.74 3954.74 1103.69 3962.92 1104.94 3969.92 1102.34 3976.08 1097.02 3983.29 1089.23 3980.31 1079.62 3980.76 1070.64Z" fill="#DD413E" fill-rule="evenodd" fill-opacity="0.309804"/><path d="M3858.76 1296.64C3854.17 1279.76 3847.52 1264.18 3832.29 1254 3825.95 1256.95 3823.52 1266.4 3814.48 1264.84 3812.65 1266.71 3810.82 1268.57 3809 1270.43 3814.73 1281.42 3819.87 1292.55 3817.24 1305.5 3816.7 1317.27 3821.27 1325.74 3832.74 1329.69 3840.92 1330.94 3847.92 1328.34 3854.08 1323.02 3861.29 1315.23 3858.31 1305.62 3858.76 1296.64Z" fill="#DD413E" fill-rule="evenodd" fill-opacity="0.309804"/><path d="M3988.76 1183.08C3984.17 1166.42 3977.52 1151.04 3962.29 1141 3955.95 1143.91 3953.52 1153.24 3944.48 1151.7 3942.65 1153.54 3940.82 1155.37 3939 1157.22 3944.73 1168.06 3949.87 1179.04 3947.24 1191.82 3946.7 1203.43 3951.27 1211.8 3962.74 1215.69 3970.92 1216.93 3977.92 1214.36 3984.08 1209.11 3991.29 1201.43 3988.31 1191.94 3988.76 1183.08Z" fill="#DD413E" fill-rule="evenodd" fill-opacity="0.309804"/><path d="M4366.76 1928.64C4362.17 1911.76 4355.52 1896.18 4340.29 1886 4333.96 1888.95 4331.52 1898.4 4322.48 1896.84 4320.65 1898.71 4318.82 1900.57 4317 1902.43 4322.73 1913.42 4327.87 1924.55 4325.24 1937.5 4324.7 1949.27 4329.27 1957.74 4340.74 1961.69 4348.92 1962.94 4355.92 1960.34 4362.08 1955.02 4369.29 1947.23 4366.31 1937.62 4366.76 1928.64Z" fill="#DD413E" fill-rule="evenodd" fill-opacity="0.411765"/><path d="M4417.75 1678.64C4413.07 1661.76 4406.29 1646.18 4390.76 1636 4384.29 1638.95 4381.81 1648.4 4372.59 1646.84 4370.73 1648.71 4368.86 1650.57 4367 1652.43 4372.84 1663.42 4378.08 1674.55 4375.4 1687.5 4374.86 1699.27 4379.51 1707.74 4391.21 1711.69 4399.56 1712.94 4406.7 1710.34 4412.98 1705.02 4420.34 1697.23 4417.3 1687.62 4417.75 1678.64Z" fill="#DD413E" fill-rule="evenodd" fill-opacity="0.411765"/><path d="M4121.75 1722.64C4117.07 1705.76 4110.29 1690.18 4094.76 1680 4088.29 1682.95 4085.81 1692.4 4076.59 1690.84 4074.73 1692.71 4072.86 1694.57 4071 1696.43 4076.84 1707.42 4082.08 1718.55 4079.4 1731.5 4078.86 1743.27 4083.51 1751.74 4095.21 1755.69 4103.56 1756.94 4110.7 1754.34 4116.98 1749.02 4124.34 1741.23 4121.3 1731.62 4121.75 1722.64Z" fill="#DD413E" fill-rule="evenodd" fill-opacity="0.411765"/><path d="M4182.76 2109.64C4178.17 2092.76 4171.52 2077.18 4156.29 2067 4149.96 2069.95 4147.52 2079.4 4138.48 2077.84 4136.65 2079.71 4134.82 2081.57 4133 2083.43 4138.73 2094.42 4143.87 2105.55 4141.24 2118.5 4140.7 2130.27 4145.27 2138.74 4156.74 2142.69 4164.92 2143.94 4171.92 2141.34 4178.08 2136.02 4185.29 2128.23 4182.31 2118.62 4182.76 2109.64Z" fill="#DD413E" fill-rule="evenodd" fill-opacity="0.411765"/><path d="M4419.85 1819.4C4416.91 1794.3 4412.65 1771.13 4402.91 1756 4398.85 1760.39 4397.29 1774.43 4391.51 1772.12 4390.34 1774.89 4389.17 1777.66 4388 1780.43 4391.67 1796.77 4394.95 1813.31 4393.27 1832.57 4392.93 1850.07 4395.85 1862.67 4403.19 1868.54 4408.43 1870.4 4412.91 1866.53 4416.85 1858.62 4421.47 1847.04 4419.56 1832.75 4419.85 1819.4Z" fill="#DD413E" fill-rule="evenodd" fill-opacity="0.411765"/><path d="M4449.85 1525.4C4446.91 1500.3 4442.65 1477.13 4432.91 1462 4428.85 1466.39 4427.29 1480.43 4421.51 1478.12 4420.34 1480.89 4419.17 1483.66 4418 1486.43 4421.67 1502.77 4424.95 1519.31 4423.27 1538.57 4422.93 1556.07 4425.85 1568.67 4433.19 1574.54 4438.43 1576.4 4442.91 1572.53 4446.85 1564.62 4451.47 1553.04 4449.56 1538.76 4449.85 1525.4Z" fill="#DD413E" fill-rule="evenodd" fill-opacity="0.411765"/></g></svg>