<svg width="4400" height="2412" xmlns="http://www.w3.org/2000/svg" xmlns:xlink="http://www.w3.org/1999/xlink" xml:space="preserve" overflow="hidden"><defs><clipPath id="clip0"><rect x="-8" y="70" width="4400" height="2412"/></clipPath></defs><g clip-path="url(#clip0)" transform="translate(8 -70)"><g><g><path d="M4400 722.628 4400 737.08 0 737.08 0 643.942C8.0292 642.015 15.7372 640.409 24.0876 638.482 49.781 632.38 49.781 632.38 58.4526 616.642 60.3796 611.504 62.3066 606.365 64.2336 600.905 75.7956 581.635 75.7956 581.635 92.8175 565.255 112.088 560.438 130.394 559.796 149.985 558.19 157.051 553.372 164.117 548.876 171.504 543.737 173.752 548.555 176.321 553.051 178.569 558.19 219.358 577.46 262.394 592.876 307.358 579.708 351.679 545.022 376.73 501.022 400.496 450.92 421.693 431.007 437.109 426.511 465.693 424.905 491.387 423.62 491.387 423.62 514.832 414.949 528 414.307 541.168 413.985 554.015 413.664 601.226 410.131 635.27 394.394 672.204 364.847 677.022 357.781 681.518 350.715 686.657 343.328 732.263 338.19 760.204 347.504 799.387 370.307 803.883 372.876 808.701 375.124 813.518 377.693 851.416 398.891 878.073 417.839 891.241 460.876 903.766 492.029 917.898 501.022 948.409 514.19 955.153 516.759 961.898 519.007 968.964 521.898 987.27 529.606 995.942 536.029 1008.79 550.803 1029.34 574.248 1042.19 583.241 1073.34 586.453L1073.34 557.869 1159.42 557.869C1156.85 545.985 1154.6 534.423 1152.35 522.219 1177.08 521.898 1198.92 521.255 1223.01 527.679 1247.42 529.606 1253.2 526.715 1274.07 516.117 1303.62 501.343 1328.03 498.774 1360.79 497.489 1403.5 495.562 1425.02 489.139 1460.03 465.372 1466.77 463.766 1473.84 461.839 1480.91 459.912 1509.81 448.029 1526.51 429.08 1547.71 406.599 1570.19 383.474 1590.42 384.759 1621.9 382.832 1630.57 382.19 1638.92 381.547 1647.59 380.905 1654.01 380.584 1660.76 379.942 1667.5 379.62L1667.5 336.584 1645.99 336.584C1645.66 332.088 1645.34 327.912 1645.02 323.095 1639.88 305.752 1639.88 305.752 1619.65 299.328 1611.94 297.08 1604.23 294.832 1596.2 292.584 1554.13 280.38 1554.13 280.38 1538.39 264.964L1538.39 243.445C1533.58 242.161 1529.08 240.876 1524.26 239.591 1473.2 225.781 1422.13 211.65 1371.07 197.518 1363.36 195.27 1355.33 193.022 1347.3 190.774 1299.77 177.606 1252.55 163.474 1205.99 147.737 1185.11 142.599 1166.16 142.277 1144.96 143.241L1144.96 129.109 1116.38 129.109 1116.38 143.241 1087.8 143.241C1087.8 139.066 1087.8 134.569 1087.47 130.073 1081.37 111.766 1081.37 111.766 1056.32 103.737 1046.36 100.526 1036.41 97.635 1026.45 94.7445 1021.31 93.1387 1016.18 91.5328 1011.04 89.927 998.511 86.073 985.985 82.219 973.139 78.6861 979.562 37.5766 979.562 37.5766 987.591 21.5182 1028.7 29.2263 1069.17 37.8978 1109.31 50.1022L1109.31 28.5839 1073.66 28.5839C1076.23 19.2701 1078.48 9.63504 1080.73 0L1180.93 0 1180.93 35.6496 1144.96 35.6496 1144.96 64.2336 1188 64.2336 1188 78.6861C1194.74 80.292 1201.49 81.8978 1208.23 83.5036 1261.87 96.6715 1315.18 110.803 1367.85 127.182 1373.31 128.788 1379.09 130.715 1384.55 132.321 1407.36 139.387 1429.84 146.453 1452.64 153.518 1525.23 176.321 1590.74 191.095 1667.18 193.343 1708.29 198.161 1748.44 206.511 1788.91 214.861 1793.72 193.664 1798.22 172.467 1803.36 150.307 1842.86 154.482 1879.47 161.547 1918.01 171.825L1918.01 128.788 1975.18 128.788 1975.18 100.204C1986.1 99.8832 1986.1 99.8832 1997.02 99.562 2006.66 99.2409 2016.29 98.9197 2025.93 98.2774 2030.74 98.2774 2035.56 97.9562 2040.38 97.9562 2048.09 97.635 2054.83 96.9927 2061.26 95.708L2219.91 176 2331.36 200.409 2358.01 243.445 2415.82 243.445 2451.15 266.569 2488.09 266.569 2711.3 285.197 2782.28 276.847C2780.35 284.555 2778.42 292.263 2776.5 300.292 2782.92 299.65 2789.34 299.007 2796.09 298.686 2819.21 300.292 2819.21 300.292 2832.06 314.423 2852.93 333.693 2868.35 334.978 2896.29 338.19 2904.64 339.153 2912.99 340.438 2921.66 341.401 2931.3 342.365 2931.3 342.365 2940.93 343.328L2940.93 357.781C2945.11 357.781 2949.28 357.781 2953.46 357.46 3001.96 357.139 3049.81 360.35 3098.31 364.847L3098.31 429.401 3133.96 429.401 3133.96 443.854 3162.54 443.854C3167.04 457.985 3171.85 472.117 3176.67 486.891 3223.88 494.599 3263.07 493.314 3309.31 482.394 3327.3 479.504 3338.22 481.109 3355.56 486.891 3356.2 485.285 3356.85 483.679 3357.49 481.752L3379.01 500.701 3447.74 500.701 3529.96 552.088 3541.84 536.993C3608 539.241 3674.16 541.489 3742.25 543.737 3744.5 564.934 3746.74 586.131 3749.31 607.971 3796.53 610.54 3843.74 612.788 3892.55 615.036L3892.55 665.139C3903.8 664.818 3903.8 664.818 3915.36 664.175 3940.73 664.818 3955.82 668.35 3978.31 679.27L3978.31 715.241 3992.76 715.241 3992.76 700.788C4016.2 705.606 4039.97 710.102 4064.38 715.241L4064.38 700.788 4085.9 700.788 4085.9 715.241C4092.64 715.241 4092.64 715.241 4099.39 715.241 4119.62 715.241 4139.53 714.92 4159.77 714.92 4166.83 714.92 4173.58 714.92 4180.96 714.599 4187.71 714.599 4194.45 714.599 4201.2 714.599 4207.3 714.599 4213.72 714.599 4219.82 714.599 4236.2 715.241 4236.2 715.241 4257.72 722.628 4268.64 723.27 4279.88 723.27 4291.12 723.27 4300.76 723.27 4300.76 723.27 4310.39 723.27 4317.14 723.27 4323.56 723.27 4330.63 722.949 4337.37 722.949 4344.12 722.949 4350.86 722.949 4366.92 722.949 4383.3 722.949 4400 722.628Z" fill="#3B1805" fill-rule="evenodd" transform="matrix(1 0 0 1.00042 -7.9999 1743.8)"/></g></g><path d="M3672 981C3672 981 3502.98 945.222 3482.71 916.669 3466.57 893.62 3354.23 864.723 3287.59 854.059 3271.44 851.65 3258.04 850.274 3249.46 850.274 3214.07 850.274 3138.84 822.753 3097.61 795.92 3086.62 788.696 3078.03 781.815 3073.22 775.279 3050.21 743.629 2881.88 702.348 2844.09 709.228 2806.3 716.108 2692.93 616.344 2692.93 616.344 2692.93 616.344 2681.6 613.592 2665.11 608.775 2645.18 602.927 2617.36 594.327 2592.97 584.006 2563.77 571.966 2539.37 557.861 2538 544.1 2539.03 531.372 2542.81 489.058 2547.62 434.704 2550.02 408.558 2552.43 380.005 2555.18 350.42 2556.55 336.659 2557.58 322.555 2558.96 308.794 2559.64 302.946 2559.99 297.442 2560.33 291.593 2568.23 206.621 2575.44 126.81 2577.85 99.6325 2579.22 93.4402 2579.57 90.0001 2579.57 90.0001 2579.57 90.0001 2590.9 95.5043 2609.45 104.105 2685.03 139.882 2879.13 233.111 2909.36 255.127 2917.95 261.32 2937.53 269.232 2962.95 277.832 2973.6 281.617 2985.28 285.401 2997.65 289.185 3085.25 317.05 3205.48 349.732 3221.97 368.309 3245.33 395.142 3431.87 408.903 3441.49 409.591 3441.83 409.591 3441.83 409.591 3441.83 409.591 3441.83 409.591 3496.11 411.655 3544.89 440.552 3586.8 465.665 3624.94 511.075 3620.81 592.607 3620.81 594.671 3620.47 596.735 3620.47 598.799 3617.04 643.865 3618.41 689.619 3622.53 733.309 3634.9 867.819 3672 981 3672 981Z" fill="#F75A3B" fill-rule="evenodd"/><path d="M2265 821C2265 824.442 2275.26 857.141 2275.26 857.141L2363.82 916 2371 834.768 2265 821Z" fill="#1C2335" fill-rule="evenodd"/><path d="M2420.72 840C2329.16 807.983 2282.68 802.291 2257.51 797.667 2244.58 791.263 2244.93 789.485 2244.93 789.485 2244.93 789.485 2238.99 727.23 2232 713 2232 713 2305.39 720.115 2336.85 720.115 2351.18 720.115 2377.04 722.961 2401.15 738.613 2408.84 764.583 2423.17 816.166 2420.72 840Z" fill="#593833" fill-rule="evenodd"/><path d="M2456 860.737C2448.41 858.675 2441.17 856.612 2434.27 854.205L2418.41 859.362 2414.62 918.496 2338.75 946C2338.75 946 2340.82 930.185 2340.47 912.651 2343.58 911.964 2345.65 911.62 2345.65 911.62L2352.54 849.736 2293.92 829.108 2267.71 840.797C2238.74 830.139 2211.15 822.232 2211.15 822.232 2211.15 822.232 2207.7 801.604 2233.91 787.164 2238.74 791.29 2245.64 793.008 2257.02 795.071 2281.85 799.884 2327.71 805.042 2418.07 835.984 2420.48 812.949 2406.34 763.098 2398.75 738 2399.44 738.688 2400.48 739.032 2401.17 739.719 2429.1 757.941 2453.93 793.696 2456 860.737Z" fill="#1C2335" fill-rule="evenodd"/><path d="M2340 912.603C2324.91 915.344 2282.39 921.51 2276.56 904.723 2269.7 884.167 2255.98 880.741 2252.55 880.741 2249.12 880.741 2262.84 867.037 2262.84 867.037 2262.84 867.037 2262.84 846.482 2262.84 843.056L2267.64 841C2295.42 851.278 2324.91 863.954 2331.43 873.889 2337.6 883.14 2339.66 898.556 2340 912.603Z" fill="#593833" fill-rule="evenodd"/><path d="M2177 1048.94C2156.37 1042.07 1974.1 973.418 1974.1 973.418L1967.23 935.657 1822.79 860.134 1791.84 863.567 1795.28 853.269C1795.28 853.269 1671.48 788.045 1657.72 784.612 1643.97 781.179 1619.9 777.746 1609.58 774.313 1599.26 770.88 1475.46 702.224 1475.46 702.224L1485.78 637 1472.37 637 1458.27 685.06 1420.44 674.761 1417 688.492 1606.14 784.612 1592.38 788.045 1551.12 770.88 1544.24 774.313 1544.24 777.746 1616.46 808.642 1757.45 884.164 1764.33 908.194 1805.6 921.925C1805.6 921.925 1784.96 976.851 1750.57 997.448 1719.62 1028.34 1781.52 1045.51 1781.52 1045.51 1781.52 1045.51 1857.18 963.119 1853.74 956.254 1884.69 956.254 1905.33 980.283 1905.33 980.283L1877.81 1014.61 1908.76 1055.81 1978.92 1055.81 2163.24 1097 2177 1051" fill="#222430" fill-rule="evenodd"/><path d="M3286 854C3269.85 851.587 3256.45 850.208 3247.86 850.208 3212.47 850.208 3137.23 822.63 3096 795.741L3172.28 733 3286 854Z" fill="#FE3A2E" fill-rule="evenodd"/><path d="M2741 2055.99 2634.36 2059.42C2634.36 2059.42 2496.76 2069.73 2503.64 2049.12 2510.52 2028.5 2548.36 2021.63 2548.36 2021.63L2599.96 1980.4C2599.96 1980.4 2603.4 1915.11 2572.44 1894.5 2534.6 1901.37 2510.52 1868.04 2510.52 1868.04L2510.52 1808.6C2510.52 1808.6 2496.76 1808.6 2469.24 1777.67 2469.24 1766.68 2467.52 1758.78 2465.12 1752.94 2460.99 1742.63 2455.48 1739.88 2455.48 1739.88 2442.41 1734.38 2423.15 1703.46 2408.36 1676.31 2395.97 1653.29 2386.68 1633.36 2386.68 1633.36 2386.68 1633.36 2386.68 1581.82 2383.24 1578.39 2379.8 1574.95 2372.92 1571.52 2372.92 1571.52 2372.92 1571.52 2335.08 1492.49 2311.01 1544.03 2286.93 1595.57 2214.69 1599 2214.69 1599L2214.69 1650.54C2214.69 1650.54 2235.33 1660.85 2245.65 1705.52 2255.97 1750.19 2218.13 1760.49 2218.13 1760.49L2214.69 1956.34 2080.53 1887.63 2135.57 1842.96C2135.57 1842.96 2135.57 1777.67 2135.57 1750.19 2125.25 1750.19 2073.65 1726.13 2066.77 1708.95 2059.89 1691.78 2087.41 1660.85 2087.41 1660.85L2080.53 1599C2080.53 1599 2086.38 1543.34 2101.51 1508.98 2106.33 1498.33 2111.83 1489.74 2118.37 1485.62 2142.1 1470.84 2211.25 1362.27 2230.51 1332.03 2233.61 1326.88 2235.33 1324.13 2235.33 1324.13 2235.33 1324.13 2235.33 1313.82 2235.33 1279.46 2211.25 1279.46 2204.37 1241.66 2204.37 1241.66L2200.93 1159.2C2200.93 1159.2 2176.85 1121.41 2149.33 1162.64 2121.81 1203.87 2080.53 1159.2 2080.53 1159.2L2032.37 1100.79C2032.37 1100.79 1980.77 1097.35 1967.01 1080.17 1953.25 1062.99 1967.01 1004.58 2018.61 1025.2 2026.86 1029.32 2035.12 1033.1 2043.38 1035.85 2171.69 1083.27 2262.85 973.659 2262.85 973.659L2296.21 976.064 2311.01 953.043 2330.27 945.484 2345.41 939.299 2377.05 916.278 2455.48 925.555 2455.48 958.197 2486.44 977.095 2486.44 932.427 2571.41 70.0001 2593.08 70.0001 2511.21 946.171 2531.16 946.171C2531.16 1052.69 2562.12 1080.17 2562.12 1080.17 2562.12 1080.17 2558.68 1190.12 2555.24 1207.3 2551.8 1224.48 2534.6 1231.36 2527.72 1231.36 2520.84 1231.36 2500.2 1203.87 2500.2 1203.87 2500.2 1203.87 2493.32 1231.36 2493.32 1276.02 2520.84 1279.46 2579.32 1310.38 2579.32 1310.38L2569 1444.39C2569 1444.39 2483 1465 2517.4 1502.8 2551.8 1540.59 2627.48 1500.74 2627.48 1500.74L2630.92 1599C2630.92 1599 2620.6 1602.44 2586.2 1605.88 2551.8 1609.31 2569 1671.16 2569 1671.16 2569 1671.16 2583.45 1686.96 2601.34 1707.58 2613.72 1722.01 2627.83 1738.5 2639.52 1753.62 2648.81 1765.3 2656.72 1776.3 2661.88 1784.55 2682.52 1818.91 2668.76 1849.83 2668.76 1849.83 2668.76 1849.83 2651.56 1853.27 2655 1884.19 2661.88 1959.78 2741 2055.99 2741 2055.99Z" fill="#1C2335" fill-rule="evenodd"/><path d="M3132 608.937 3036.21 699 2548 435C2550.4 408.875 2552.81 380.344 2555.55 350.781 2556.93 337.031 2557.96 322.937 2559.33 309.187 2560.02 303.344 2560.36 297.844 2560.7 292L2892.01 369 3132 608.937Z" fill="#FD422F" fill-rule="evenodd"/><path d="M2841 359.891C2827.23 372.983 2814.15 387.109 2801.07 401.924 2781.45 424.664 2762.52 449.471 2744.62 476 2705.73 460.496 2666.49 441.202 2630 416.395 2632.41 397.79 2634.13 378.152 2635.51 358.168 2636.54 344.042 2637.23 329.916 2637.57 315.445L2649.28 312 2841 359.891Z" fill="#A83131" fill-rule="evenodd"/><path d="M2949.5 273.806 2879.06 328.5C2784.56 254.543 2688 179.897 2615.84 127.267L2604.5 102.5C2606.22 103.188 2607.94 104.22 2610 105.252 2685.6 141.027 2879.74 234.248 2909.98 256.263 2916.86 261.079 2930.94 266.926 2949.5 273.806Z" stroke="#FF402C" stroke-width="3.4375" stroke-miterlimit="8" fill="none" fill-rule="evenodd"/><path d="M3672 981C3672 981 3502.93 945.238 3482.66 916.697 3466.51 893.657 3354.14 864.772 3287.47 854.112L3173.73 733.412 3097.44 795.997C3086.44 788.776 3077.85 781.899 3073.04 775.365 3050.02 743.729 2881.64 702.464 2843.84 709.341 2806.04 716.219 2692.64 616.496 2692.64 616.496 2692.64 616.496 2681.3 613.745 2664.8 608.931 2663.43 608.587 2662.4 608.243 2661.02 607.899 2659.99 607.555 2658.62 607.212 2657.59 606.868 2648.31 604.117 2638 600.678 2627.35 597.239 2625.28 596.551 2623.22 595.864 2621.16 595.176 2617.72 594.144 2614.63 592.769 2611.19 591.737 2609.82 591.393 2608.45 590.706 2607.41 590.362 2602.6 588.643 2597.79 586.579 2592.98 584.516 2563.77 572.48 2539.37 558.382 2538 544.627 2539.37 525.714 2546.93 441.809 2555.18 351.027 2577.17 376.13 2602.95 397.793 2630.44 416.362 2629.75 423.584 2628.72 430.461 2627.69 437.339L2728.37 500.611C2733.87 492.358 2739.37 484.105 2744.87 475.852L2744.87 475.852C2860.33 521.587 2970.64 530.528 2974.42 530.528 2981.29 530.528 3001.91 644.006 3005.35 644.006 3008.78 644.006 3101.56 622.686 3101.56 622.686 3101.56 622.686 2977.85 499.579 2960.67 475.508 2945.55 454.188 2885.42 411.892 2801.23 401.92 2789.54 400.544 2777.51 399.857 2764.8 399.857 2723.91 399.857 2677.52 380.944 2635.94 358.248 2606.38 342.086 2579.58 323.861 2559.31 309.074 2567.55 217.948 2575.8 128.885 2578.55 100 2767.21 234.11 3218.4 597.927 3218.4 597.927L3223.9 539.813 2997.44 289.817C3085.07 317.671 3205.34 350.339 3221.84 368.908 3245.2 395.73 3431.8 409.485 3441.42 410.173 3441.76 410.173 3441.76 410.173 3441.76 410.173 3441.76 410.173 3496.06 412.236 3544.85 441.121 3586.78 466.224 3624.92 511.615 3620.8 593.113 3620.8 595.176 3620.45 597.239 3620.45 599.302 3617.02 644.35 3618.39 690.085 3622.52 733.756 3634.89 867.867 3672 981 3672 981Z" fill="#8A2D2E" fill-rule="evenodd"/><path d="M2878.5 328.4C2851.1 349.768 2825.75 374.583 2801.77 402.5 2790.12 401.121 2778.13 400.432 2765.46 400.432 2724.69 400.432 2678.45 381.476 2637 358.729 2642.14 279.803 2639.05 195.363 2618.5 128.5 2690.44 181.232 2785.32 254.988 2878.5 328.4Z" stroke="#8A2D2E" stroke-width="3.4375" stroke-miterlimit="8" fill="none" fill-rule="evenodd"/><path d="M3592.98 727C3458.93 696.407 3338.28 662.032 3263 616.313 3267.47 613.907 3365.78 498.75 3433.49 419 3477.49 455.094 3546.58 515.25 3558.61 551 3574.76 599.813 3593.67 683.688 3592.98 727Z" fill="#712A2F" fill-rule="evenodd"/><path d="M3290.86 585.143 3325.14 688 3225.71 626.286 3133.14 670.857 3160.57 571.428 3102.29 507.314 3092 496C3092 496 3198.29 513.143 3198.29 509.714 3198.29 506.286 3218.86 448 3218.86 448L3260 530.286 3356 547.428 3297.03 581.714 3290.86 585.143Z" fill="#F8C98D" fill-rule="evenodd"/><path d="M3325 688 3225.51 626.178 3132.88 670.827 3160.32 571.226 3102 507C3147.97 537.911 3235.8 584.964 3235.8 584.964 3235.8 584.964 3268.74 582.56 3296.87 581.529L3290.69 584.964 3325 688Z" fill="#BC9775" fill-rule="evenodd"/><path d="M2745 475.385C2716.74 516.816 2690.2 561.7 2665.04 609 2663.66 608.655 2662.62 608.31 2661.24 607.965 2660.21 607.619 2658.83 607.274 2657.8 606.929 2648.49 604.167 2638.15 600.714 2627.47 597.261 2625.4 596.571 2623.33 595.881 2621.26 595.19 2617.82 594.154 2614.71 592.773 2611.27 591.737 2609.89 591.392 2608.51 590.702 2607.48 590.356 2602.65 588.63 2597.83 586.558 2593 584.487 2606.44 554.449 2621.61 490.921 2630.57 416 2666.41 440.513 2706.05 459.848 2745 475.385Z" fill="#792324" fill-rule="evenodd"/><path d="M2878 327.899C2850.6 349.268 2825.25 374.083 2801.27 402 2789.62 400.621 2777.63 399.932 2764.96 399.932 2724.19 399.932 2677.95 380.976 2636.5 358.229 2641.64 279.303 2638.55 194.863 2618 128 2689.94 180.732 2784.82 254.488 2878 327.899Z" fill="#7D2C2B" fill-rule="evenodd"/><path d="M2949 273.306 2878.56 328C2784.06 254.043 2687.5 179.398 2615.34 126.767L2604 102C2605.72 102.688 2607.44 103.72 2609.5 104.752 2685.1 140.527 2879.24 233.748 2909.48 255.763 2916.36 260.579 2930.44 266.426 2949 273.306Z" fill="#F83D2F" fill-rule="evenodd"/><path d="M3286 854C3269.85 851.587 3256.45 850.208 3247.86 850.208 3212.47 850.208 3137.23 822.63 3096 795.741L3172.28 733 3286 854Z" fill="#FE3A2E" fill-rule="evenodd"/><path d="M2302.47 1016.35 2305.91 1050.81 2281.86 1043.92 2254.38 1078.39C2254.38 1078.39 2209.39 1072.87 2200.8 1069.08 2204.23 1074.25 2213.16 1092.17 2213.16 1092.17 2213.16 1092.17 2182.25 1099.07 2177.1 1097.34 2171.94 1095.62 2192.55 1116.3 2192.21 1116.99 2191.87 1117.68 2110.12 1116.3 2103.25 1116.99 2096.72 1117.68 2119.39 1165.93 2120.42 1168 2118.02 1165.24 2041.42 1081.83 2042.45 1074.94 2043.48 1068.05 1989.89 1074.94 1989.89 1074.94L1971 1065.98 2043.48 1035.99C2171.94 1083.21 2262.97 973.263 2262.97 973.263L2296.29 975.676 2311.06 952.583 2330.3 945C2351.59 948.102 2373.92 950.859 2384.91 950.859 2408.96 950.859 2436.44 992.219 2426.82 1009.45 2417.2 1026.69 2357.43 1009.45 2357.43 1009.45L2433 1154.21 2302.47 1016.35Z" fill="#593833" fill-rule="evenodd"/><path d="M2216.55 1710.75C2213.11 1717.59 2127.24 1717.59 2127.24 1717.59 2127.24 1717.59 2124.49 1732.99 2121.4 1746 2102.16 1738.47 2072.27 1721.7 2067.12 1709.04 2061.28 1694.66 2079.83 1670.7 2086.01 1663.17L2111.78 1661.12 2096.32 1651.53 2082.58 1613.88 2080.86 1599.51C2080.86 1599.51 2081.55 1591.64 2083.61 1580L2192.5 1632.02 2202.81 1673.1C2202.81 1673.1 2219.98 1703.9 2216.55 1710.75Z" fill="#4E3436" fill-rule="evenodd"/><path d="M2213.25 1405.06 2213.25 1438.41 2268.16 1442.87 2320.67 1508.19C2320.67 1508.19 2213.25 1465.22 2213.25 1473.12 2213.25 1480.69 2278.45 1532.25 2278.45 1532.25 2278.45 1532.25 2248.6 1567.66 2217.03 1561.81 2185.8 1556.31 2144.61 1504.75 2144.61 1504.75L2137.75 1528.81 2206.39 1601 2130.89 1539.12 2117.16 1573.5 2100 1576.94 2102.06 1509.22C2106.86 1498.56 2112.35 1489.97 2118.88 1485.84 2142.55 1471.06 2211.53 1362.44 2230.75 1332.19L2240.7 1332.87C2251 1332.87 2391.7 1326 2391.7 1326L2402 1360.37 2254.78 1360.37 2374.55 1425.69 2213.25 1405.06Z" fill="#4E3436" fill-rule="evenodd"/><path d="M2283.31 1438.18 2413.97 1555 2426 1555 2420.84 1537.82 2293.63 1424.44 2273 1421Z" fill="#534D50" fill-rule="evenodd"/><path d="M2402 1478.98 2478 1532C2478 1532 2463.84 1488.27 2446.56 1478.98 2429.64 1470.03 2402 1478.98 2402 1478.98Z" fill="#534D50" fill-rule="evenodd"/><path d="M2606.78 1808.74C2623.92 1832.72 2627.35 1843 2627.35 1843 2627.35 1843 2532.4 1802.91 2465.56 1753.24 2461.44 1742.96 2455.96 1740.22 2455.96 1740.22 2442.93 1734.73 2423.74 1703.9 2409 1676.83 2414.48 1667.93 2415.86 1669.3 2416.2 1669.64 2415.17 1666.21 2397 1608.65 2440.19 1610.02 2484.75 1611.39 2554.34 1663.13 2554.34 1663.13L2560.16 1666.55 2481.33 1652.85C2481.33 1652.85 2486.47 1681.97 2517.32 1688.82 2548.17 1695.68 2579.02 1702.53 2579.02 1702.53L2600.95 1708.01C2613.29 1722.4 2627.35 1738.85 2639 1753.92L2603.01 1771.05 2579.02 1760.77C2579.36 1760.77 2589.64 1784.76 2606.78 1808.74Z" fill="#4E3436" fill-rule="evenodd"/><path d="M2524.33 1811C2524.33 1811 2557.03 1831.47 2577.47 1838.29 2597.9 1845.12 2570.65 1869 2567.25 1869 2563.84 1869 2529.1 1855.35 2520.92 1840 2512.75 1824.65 2524.33 1811 2524.33 1811Z" fill="#4E3436" fill-rule="evenodd"/><rect x="2338" y="896" width="18.0002" height="16.9998" fill="#1C2335"/></g></svg>